<svg xmlns="http://www.w3.org/2000/svg" xmlns:xlink="http://www.w3.org/1999/xlink" zoomAndPan="magnify" preserveAspectRatio="xMidYMid meet" version="1.0" viewBox="29.89 89.12 259.94 197.28"><defs><g/><clipPath id="0f6c80bc87"><path d="M 69 152 L 141 152 L 141 224 L 69 224 Z M 69 152 " clip-rule="nonzero"/></clipPath><clipPath id="5587413148"><path d="M 116.414062 246.710938 L 69.214844 199.507812 L 140.277344 128.445312 L 187.476562 175.644531 Z M 116.414062 246.710938 " clip-rule="nonzero"/></clipPath><clipPath id="7046bac035"><path d="M 156.109375 286.402344 L 29.890625 160.1875 L 100.953125 89.121094 L 227.171875 215.339844 Z M 156.109375 286.402344 " clip-rule="nonzero"/></clipPath><clipPath id="8b1f4beea2"><path d="M 116 152 L 188 152 L 188 224 L 116 224 Z M 116 152 " clip-rule="nonzero"/></clipPath><clipPath id="bbf02c38c6"><path d="M 116.414062 246.710938 L 69.214844 199.507812 L 140.277344 128.445312 L 187.476562 175.644531 Z M 116.414062 246.710938 " clip-rule="nonzero"/></clipPath><clipPath id="75e642cda7"><path d="M 156.109375 286.402344 L 29.890625 160.1875 L 100.953125 89.121094 L 227.171875 215.339844 Z M 156.109375 286.402344 " clip-rule="nonzero"/></clipPath></defs><g clip-path="url(#0f6c80bc87)"><g clip-path="url(#5587413148)"><g clip-path="url(#7046bac035)"><path fill="#ff3131" d="M 140.210938 152.105469 L 140.222656 175.785156 L 116.542969 175.773438 L 116.566406 223.136719 L 92.910156 223.097656 L 92.859375 175.761719 L 69.179688 175.75 L 69.191406 152.09375 Z M 140.210938 152.105469 " fill-opacity="1" fill-rule="nonzero"/></g></g></g><g clip-path="url(#8b1f4beea2)"><g clip-path="url(#bbf02c38c6)"><g clip-path="url(#75e642cda7)"><path fill="#00bf63" d="M 140.234375 199.46875 L 140.210938 152.105469 L 163.867188 152.144531 L 163.890625 199.453125 L 187.570312 199.464844 L 187.585938 223.148438 L 116.566406 223.136719 L 116.554688 199.457031 Z M 140.234375 199.46875 " fill-opacity="1" fill-rule="nonzero"/></g></g></g><g fill="#000000" fill-opacity="1"><g transform="translate(187.457303, 182.688318)"><g><path d="M 15.75 -23.136719 C 17.351562 -23.136719 18.292969 -24.257812 18.292969 -25.636719 C 18.292969 -27 17.332031 -28.140625 15.769531 -28.140625 C 14.148438 -28.140625 13.230469 -27 13.230469 -25.636719 C 13.230469 -24.257812 14.171875 -23.136719 15.75 -23.136719 Z M 9.507812 -23.078125 C 11.109375 -23.078125 12.046875 -24.195312 12.046875 -25.578125 C 12.046875 -26.9375 11.085938 -28.078125 9.527344 -28.078125 C 7.90625 -28.078125 6.984375 -26.9375 6.984375 -25.578125 C 6.984375 -24.195312 7.925781 -23.078125 9.507812 -23.078125 Z M 18.394531 -20.472656 L 13.410156 -20.472656 L 13.410156 -16.992188 L 10.347656 -16.992188 C 5.34375 -16.992188 1.382812 -13.410156 1.382812 -8.847656 C 1.382812 -3.902344 5.382812 0 10.425781 0 L 24.117188 0 L 24.117188 -4.464844 L 18.394531 -4.464844 Z M 10.167969 -4.441406 C 7.785156 -4.441406 5.925781 -6.34375 5.925781 -8.925781 C 5.925781 -11.269531 7.785156 -12.96875 10.167969 -12.96875 L 13.410156 -12.96875 L 13.410156 -4.441406 Z M 10.167969 -4.441406 "/></g></g></g><g fill="#000000" fill-opacity="1"><g transform="translate(211.388308, 182.688318)"><g><path d="M 32.722656 -7.785156 C 32.722656 -14.148438 29.140625 -17.390625 22.234375 -17.390625 C 17.492188 -17.390625 13.371094 -14.910156 10.507812 -11.40625 L 10.507812 -16.871094 L 5.523438 -16.871094 L 5.523438 -4.464844 L -0.199219 -4.464844 L -0.199219 0 L 38.285156 0 L 38.285156 -4.464844 L 32.722656 -4.464844 Z M 27.738281 -4.464844 L 10.507812 -4.464844 L 10.507812 -5.804688 C 12.628906 -9.765625 16.773438 -13.1875 21.855469 -13.1875 C 25.679688 -13.1875 27.738281 -11.429688 27.738281 -7.925781 Z M 27.738281 -4.464844 "/></g></g></g><g fill="#000000" fill-opacity="1"><g transform="translate(249.485828, 182.688318)"><g><path d="M 7.964844 -23.457031 C 9.585938 -23.457031 10.527344 -24.578125 10.527344 -25.957031 C 10.527344 -27.320312 9.546875 -28.441406 7.984375 -28.441406 C 6.363281 -28.441406 5.464844 -27.320312 5.464844 -25.957031 C 5.464844 -24.578125 6.382812 -23.457031 7.964844 -23.457031 Z M 16.191406 0 L 16.191406 -4.464844 L 10.507812 -4.464844 L 10.507812 -20.472656 L 5.523438 -20.472656 L 5.523438 -4.464844 L -0.199219 -4.464844 L -0.199219 0 Z M 16.191406 0 "/></g></g></g><g fill="#000000" fill-opacity="1"><g transform="translate(265.493189, 182.688318)"><g><path d="M 13.269531 -20.894531 C 6.90625 -20.894531 2.261719 -16.3125 2.261719 -10.449219 C 2.261719 -8.144531 2.902344 -6.0625 4.0625 -4.464844 L -0.199219 -4.464844 L -0.199219 0 L 13.210938 0 C 19.875 0 24.335938 -4.242188 24.335938 -10.449219 C 24.335938 -16.3125 19.714844 -20.894531 13.269531 -20.894531 Z M 13.628906 -4.464844 C 13.589844 -4.464844 13.347656 -4.464844 13.148438 -4.464844 L 9.285156 -4.464844 C 7.804688 -5.84375 6.925781 -8.226562 6.925781 -10.585938 C 6.925781 -14.46875 9.746094 -16.933594 13.308594 -16.933594 C 16.832031 -16.933594 19.671875 -14.589844 19.671875 -10.707031 C 19.671875 -6.644531 16.851562 -4.464844 13.628906 -4.464844 Z M 13.628906 -4.464844 "/></g></g></g><g fill="#000000" fill-opacity="1"><g transform="translate(170.409257, 220.67343)"><g><path d="M 31.320312 -4.441406 C 28.960938 -4.441406 27.71875 -5.464844 27.71875 -8.484375 L 27.71875 -10.566406 C 27.71875 -16.710938 22.996094 -21.054688 16.652344 -21.054688 C 10.347656 -21.054688 5.644531 -16.710938 5.644531 -10.566406 C 5.644531 -8.003906 6.246094 -5.882812 7.34375 -4.304688 C 3.421875 -3.640625 1.382812 -0.660156 1.382812 3.664062 L 1.382812 7.964844 L 6.40625 7.964844 L 6.40625 3.84375 C 6.40625 1.5625 7.363281 0 9.425781 0 L 16.589844 0 C 19.992188 0 22.816406 -1.140625 24.757812 -3.0625 C 25.976562 -1.320312 27.980469 0 31 0 L 32.101562 0 L 32.101562 -4.441406 Z M 17.011719 -4.464844 L 16.792969 -4.464844 L 16.792969 -4.441406 L 13.050781 -4.441406 C 11.328125 -5.703125 10.308594 -7.945312 10.308594 -10.628906 C 10.308594 -14.351562 13.070312 -16.933594 16.691406 -16.933594 C 20.292969 -16.933594 23.054688 -14.449219 23.054688 -10.707031 C 23.054688 -6.703125 20.253906 -4.464844 17.011719 -4.464844 Z M 17.011719 -4.464844 "/></g></g></g><g fill="#000000" fill-opacity="1"><g transform="translate(202.323933, 220.67343)"><g><path d="M 30.722656 -9.207031 C 30.722656 -18.652344 24.195312 -24.898438 14.75 -24.898438 L 14.75 -20.175781 C 21.15625 -20.074219 25.757812 -15.472656 25.757812 -8.464844 L 25.757812 -4.382812 L 22.636719 -4.382812 L 22.636719 -8.324219 C 22.535156 -13.691406 18.894531 -17.273438 13.050781 -17.273438 C 7.226562 -17.273438 3.503906 -13.027344 3.503906 -8.027344 C 3.503906 -6.726562 3.78125 -5.523438 4.304688 -4.441406 L -0.199219 -4.464844 L -0.199219 0 L 17.734375 0 L 17.734375 0.0195312 L 22.636719 0.0195312 L 22.636719 0 L 34.945312 0 L 34.945312 -4.464844 L 30.722656 -4.464844 Z M 9.546875 -4.421875 C 8.644531 -5.363281 8.164062 -6.664062 8.164062 -8.164062 C 8.164062 -11.027344 10.167969 -12.910156 13.007812 -12.910156 C 15.972656 -12.910156 17.734375 -11.128906 17.734375 -8.164062 L 17.734375 -4.402344 Z M 9.546875 -4.421875 "/></g></g></g><g fill="#000000" fill-opacity="1"><g transform="translate(237.079916, 220.67343)"><g><path d="M 29.621094 -4.464844 L 22.777344 -4.464844 L 22.777344 -17.03125 L 17.792969 -17.03125 L 17.792969 -4.464844 L 10.886719 -4.464844 L 10.886719 -16.910156 L 5.902344 -16.910156 L 5.902344 -4.464844 L -0.199219 -4.464844 L -0.199219 0 L 34.605469 0 L 34.605469 -20.472656 L 29.621094 -20.472656 Z M 29.621094 -4.464844 "/></g></g></g><g fill="#000000" fill-opacity="1"><g transform="translate(274.497122, 220.67343)"><g><path d="M 7.824219 0 L 7.824219 -27.21875 L 2.84375 -27.21875 L 2.84375 0 Z M 7.824219 0 "/></g></g></g></svg>